<svg width="48" height="47" viewBox="0 0 48 47" fill="none" xmlns="http://www.w3.org/2000/svg">
<path fill-rule="evenodd" clip-rule="evenodd" d="M0 23.3673C0 36.2727 10.7452 46.7346 24 46.7346C37.2548 46.7346 48 36.2727 48 23.3673C48 10.4619 37.2548 0 24 0C10.7452 0 0 10.4619 0 23.3673ZM19.6 34.0773L20.0083 28.1209L20.008 28.1206L31.1369 18.3424C31.6253 17.9203 31.0303 17.7145 30.3819 18.0973L16.6473 26.5339L10.7147 24.731C9.4335 24.3491 9.4243 23.4919 11.0023 22.8757L34.1203 14.1965C35.1762 13.7298 36.1953 14.4434 35.7922 16.0168L31.8552 34.0803C31.5803 35.364 30.7837 35.671 29.68 35.078L23.6827 30.764L20.8 33.4931C20.7909 33.5017 20.7819 33.5103 20.7729 33.5188C20.4505 33.8245 20.1837 34.0773 19.6 34.0773Z" fill="#EAB462"/>
</svg>
