<svg width="48" height="47" viewBox="0 0 48 47" fill="none" xmlns="http://www.w3.org/2000/svg">
<path fill-rule="evenodd" clip-rule="evenodd" d="M24 0C10.7452 0 0 10.4619 0 23.3673C0 36.2727 10.7452 46.7346 24 46.7346C37.2548 46.7346 48 36.2727 48 23.3673C48 10.4619 37.2548 0 24 0ZM25.9541 30.7438C25.7175 30.9867 25.2555 31.0358 25.2555 31.0358H23.7254C23.7254 31.0358 20.3497 31.2296 17.376 28.2715C14.1331 25.0441 11.2695 18.6408 11.2695 18.6408C11.2695 18.6408 11.1043 18.2208 11.2833 18.0186C11.4849 17.79 12.0346 17.7756 12.0346 17.7756L15.6919 17.7529C15.6919 17.7529 16.0363 17.8068 16.2829 17.9803C16.487 18.1239 16.601 18.3907 16.601 18.3907C16.601 18.3907 17.192 19.8195 17.9745 21.1119C19.5033 23.6357 20.2145 24.1873 20.7329 23.9169C21.4892 23.5232 21.2625 20.3496 21.2625 20.3496C21.2625 20.3496 21.2763 19.1985 20.8819 18.6851C20.5764 18.2878 20.0004 18.1717 19.7462 18.1394C19.5396 18.1131 19.8777 17.656 20.3159 17.4513C20.9745 17.1438 22.1365 17.1259 23.51 17.139C24.5806 17.1498 24.8886 17.2132 25.3068 17.3101C26.2774 17.534 26.2471 18.2514 26.1817 19.7996C26.1621 20.2626 26.1394 20.8 26.1394 21.4206C26.1394 21.5601 26.1352 21.7088 26.1308 21.8618C26.1081 22.6549 26.0821 23.5632 26.629 23.9013C26.9095 24.0736 27.5944 23.9264 29.3085 21.1454C30.1211 19.8267 30.7296 18.277 30.7296 18.277C30.7296 18.277 30.8636 18.0006 31.0702 17.8821C31.2818 17.7613 31.5673 17.7984 31.5673 17.7984L35.4162 17.7756C35.4162 17.7756 36.5732 17.6428 36.7597 18.143C36.9563 18.6659 36.3278 19.8889 34.7551 21.8921C33.2654 23.7902 32.5394 24.4907 32.6037 25.109C32.6509 25.5623 33.1229 25.9713 34.0302 26.7757C35.9206 28.4531 36.4273 29.3356 36.549 29.5476C36.5591 29.5652 36.5665 29.5782 36.5719 29.5866C37.4196 30.9305 35.6316 31.0358 35.6316 31.0358L32.2121 31.0812C32.2121 31.0812 31.4784 31.22 30.5118 30.5858C30.0054 30.2539 29.5106 29.7117 29.0393 29.1953C28.3196 28.4067 27.6548 27.6782 27.0873 27.8503C26.1344 28.1399 26.1632 30.1012 26.1632 30.1012C26.1632 30.1012 26.1707 30.5212 25.9541 30.7438Z" fill="#EAB462"/>
</svg>
