<svg width="48" height="47" viewBox="0 0 48 47" fill="none" xmlns="http://www.w3.org/2000/svg">
<path fill-rule="evenodd" clip-rule="evenodd" d="M0 23.3673C0 36.2727 10.7452 46.7346 24 46.7346C37.2548 46.7346 48 36.2727 48 23.3673C48 10.4619 37.2548 0 24 0C10.7452 0 0 10.4619 0 23.3673ZM39.0621 22.473C39.059 30.1324 32.6595 36.3647 24.7911 36.3678H24.7852C22.3967 36.367 20.0498 35.7836 17.9653 34.6766L10.4 36.6088L12.4246 29.4086C11.1757 27.3013 10.5186 24.911 10.5196 22.4621C10.5228 14.8009 16.9248 8.56801 24.7909 8.56801C28.6086 8.56962 32.1918 10.0167 34.8862 12.6431C37.5806 15.2694 39.0637 18.7604 39.0621 22.473Z" fill="#EAB462"/>
<path fill-rule="evenodd" clip-rule="evenodd" d="M13.8265 33.3078L18.3159 32.1612L18.749 32.4115C20.5702 33.4638 22.6578 34.0205 24.7863 34.0213H24.7911C31.3289 34.0213 36.6499 28.8404 36.6526 22.4724C36.6538 19.3864 35.4212 16.4849 33.1817 14.3019C30.9422 12.1189 27.964 10.9161 24.7958 10.915C18.2529 10.915 12.9318 16.0954 12.9292 22.463C12.9283 24.6452 13.5554 26.7704 14.7428 28.6092L15.0248 29.0461L13.8265 33.3078ZM31.4924 25.4647C31.7411 25.5817 31.9091 25.6608 31.9808 25.7773C32.0699 25.9221 32.0699 26.6172 31.7729 27.4283C31.4756 28.2393 30.0511 28.9795 29.3659 29.0791C28.7516 29.1686 27.9742 29.2059 27.12 28.9415C26.602 28.7816 25.9379 28.5679 25.0871 28.2102C21.7442 26.8048 19.4851 23.6502 19.0581 23.054C19.0282 23.0122 19.0072 22.983 18.9956 22.9678L18.9927 22.9641C18.804 22.7189 17.5395 21.0763 17.5395 19.3763C17.5395 17.7771 18.3464 16.9388 18.7178 16.553C18.7432 16.5265 18.7666 16.5022 18.7876 16.4799C19.1144 16.1323 19.5008 16.0455 19.7385 16.0455C19.9762 16.0455 20.2141 16.0476 20.4219 16.0577C20.4475 16.059 20.4742 16.0588 20.5018 16.0587C20.7096 16.0575 20.9686 16.056 21.2242 16.6537C21.3225 16.8838 21.4664 17.2248 21.6181 17.5844C21.925 18.3117 22.264 19.1153 22.3236 19.2316C22.4128 19.4054 22.4722 19.6081 22.3534 19.8399C22.3355 19.8747 22.319 19.9075 22.3032 19.9388C22.214 20.1163 22.1483 20.2468 21.9968 20.419C21.9372 20.4868 21.8756 20.5598 21.814 20.6328C21.6914 20.7783 21.5687 20.9237 21.4619 21.0273C21.2834 21.2005 21.0975 21.3883 21.3055 21.7359C21.5136 22.0835 22.2292 23.2203 23.2893 24.141C24.4288 25.1306 25.4192 25.5489 25.9212 25.7609C26.0192 25.8023 26.0986 25.8358 26.1569 25.8642C26.5133 26.0381 26.7214 26.009 26.9294 25.7773C27.1374 25.5456 27.8208 24.7635 28.0585 24.416C28.2962 24.0685 28.534 24.1264 28.8608 24.2422C29.1877 24.3582 30.9408 25.198 31.2974 25.3718C31.367 25.4057 31.4321 25.4363 31.4924 25.4647Z" fill="#EAB462"/>
</svg>
