<svg width="48" height="47" viewBox="0 0 48 47" fill="none" xmlns="http://www.w3.org/2000/svg">
<path fill-rule="evenodd" clip-rule="evenodd" d="M24 0C10.7452 0 0 10.4619 0 23.3673C0 36.2727 10.7452 46.7346 24 46.7346C37.2548 46.7346 48 36.2727 48 23.3673C48 10.4619 37.2548 0 24 0ZM18.7233 10.98C20.0886 10.9195 20.5249 10.9047 24.0012 10.9047H23.9972C27.4746 10.9047 27.9092 10.9195 29.2746 10.98C30.6373 11.0408 31.5679 11.2508 32.384 11.559C33.2266 11.8771 33.9386 12.3029 34.6506 12.9961C35.3626 13.6889 35.8 14.3842 36.128 15.2039C36.4427 15.9963 36.6587 16.9019 36.7227 18.2287C36.784 19.558 36.8 19.9828 36.8 23.3674C36.8 26.7521 36.784 27.1758 36.7227 28.5052C36.6587 29.8314 36.4427 30.7373 36.128 31.53C35.8 32.3494 35.3626 33.0447 34.6506 33.7374C33.9394 34.4307 33.2264 34.8575 32.3848 35.1758C31.5703 35.484 30.6391 35.6941 29.2765 35.7548C27.9111 35.8153 27.4762 35.8301 23.9996 35.8301C20.5236 35.8301 20.0876 35.8153 18.7222 35.7548C17.3598 35.6941 16.4294 35.484 15.615 35.1758C14.7736 34.8575 14.0595 34.4307 13.3483 33.7374C12.6365 33.0447 12.1992 32.3494 11.872 31.5297C11.5557 30.7373 11.34 29.8317 11.2773 28.5049C11.2155 27.1756 11.2 26.7521 11.2 23.3674C11.2 19.9828 11.216 19.5578 11.2771 18.2284C11.3384 16.9022 11.5544 15.9963 11.8717 15.2036C12.1997 14.3842 12.6371 13.6889 13.3491 12.9961C14.0606 12.3032 14.7747 11.8774 15.6166 11.559C16.4305 11.2508 17.3606 11.0408 18.7233 10.98Z" fill="#EAB462"/>
<path fill-rule="evenodd" clip-rule="evenodd" d="M22.853 13.1506C23.0759 13.1502 23.3158 13.1503 23.5746 13.1505L24.0013 13.1506C27.4189 13.1506 27.824 13.1625 29.1736 13.2222C30.4216 13.2778 31.0989 13.4808 31.5501 13.6514C32.1475 13.8773 32.5733 14.1473 33.0211 14.5835C33.4691 15.0197 33.7464 15.4351 33.979 16.0167C34.1542 16.4555 34.363 17.115 34.4198 18.3301C34.4811 19.6439 34.4944 20.0386 34.4944 23.3645C34.4944 26.6905 34.4811 27.0852 34.4198 28.3989C34.3627 29.6141 34.1542 30.2735 33.979 30.7123C33.747 31.2939 33.4691 31.708 33.0211 32.144C32.5731 32.5802 32.1477 32.8502 31.5501 33.0761C31.0995 33.2474 30.4216 33.45 29.1736 33.5055C27.8242 33.5652 27.4189 33.5782 24.0013 33.5782C20.5834 33.5782 20.1783 33.5652 18.8289 33.5055C17.5809 33.4494 16.9036 33.2464 16.4521 33.0758C15.8548 32.8499 15.4281 32.5799 14.9801 32.1437C14.5321 31.7075 14.2548 31.2931 14.0222 30.7113C13.847 30.2725 13.6382 29.613 13.5814 28.3979C13.5201 27.0841 13.5078 26.6895 13.5078 23.3614C13.5078 20.0334 13.5201 19.6408 13.5814 18.327C13.6385 17.1119 13.847 16.4524 14.0222 16.0131C14.2542 15.4315 14.5321 15.0161 14.9801 14.5799C15.4281 14.1437 15.8548 13.8737 16.4521 13.6473C16.9033 13.4759 17.5809 13.2734 18.8289 13.2176C20.0097 13.1656 20.4674 13.1501 22.853 13.1475V13.1506ZM30.8339 15.2204C29.9859 15.2204 29.2978 15.8897 29.2978 16.7158C29.2978 17.5416 29.9859 18.2117 30.8339 18.2117C31.6819 18.2117 32.3699 17.5416 32.3699 16.7158C32.3699 15.8899 31.6819 15.2199 30.8339 15.2199V15.2204ZM17.4279 23.3683C17.4279 19.8339 20.3709 16.9684 24.001 16.9682C27.6312 16.9682 30.5736 19.8339 30.5736 23.3683C30.5736 26.9028 27.6314 29.7671 24.0013 29.7671C20.3711 29.7671 17.4279 26.9028 17.4279 23.3683Z" fill="#EAB462"/>
<path d="M24.0012 19.2134C26.3575 19.2134 28.2679 21.0732 28.2679 23.3676C28.2679 25.6618 26.3575 27.5218 24.0012 27.5218C21.6447 27.5218 19.7345 25.6618 19.7345 23.3676C19.7345 21.0732 21.6447 19.2134 24.0012 19.2134V19.2134Z" fill="#EAB462"/>
</svg>
