<svg width="29" height="29" viewBox="0 0 29 29" fill="none" xmlns="http://www.w3.org/2000/svg">
<path fill-rule="evenodd" clip-rule="evenodd" d="M9.91833 19.0818C13.3997 22.5632 16.6332 24.5037 19.0392 25.582C21.1403 26.5237 23.6199 25.7848 25.5528 23.8518L25.9944 23.4088L20.6838 20.0295C19.6745 21.5014 17.7656 22.365 15.8597 21.5615C14.4164 20.9517 12.5061 19.9094 10.7984 18.2017C9.0908 16.4941 8.05 14.5837 7.44024 13.1404C6.63524 11.2345 7.49731 9.32559 8.97065 8.31632L5.59144 3.00565L5.14838 3.44721C3.21547 5.38013 2.47805 7.85975 3.41823 9.96089C4.49657 12.3669 6.43699 15.6005 9.91833 19.0818ZM17.8122 28.323C15.0863 27.1019 11.5464 24.9572 7.79468 21.2055C4.04301 17.4553 1.89833 13.9139 0.675807 11.1879C-0.938707 7.5834 0.536133 3.81367 3.02474 1.32354L3.46629 0.880481C3.7843 0.562257 4.16973 0.319532 4.59412 0.170231C5.01851 0.0209297 5.47101 -0.0311347 5.91822 0.0178826C6.36543 0.0668999 6.79591 0.215747 7.17788 0.453432C7.55986 0.691117 7.88356 1.01157 8.12509 1.39112L12.3754 8.07452C12.488 8.2518 12.5621 8.45072 12.593 8.65844C12.624 8.86616 12.611 9.07805 12.5549 9.28044C12.4989 9.48283 12.401 9.67121 12.2677 9.83343C12.1343 9.99565 11.9684 10.1281 11.7807 10.2222L10.83 10.6983C10.1812 11.0227 10.049 11.5949 10.2067 11.9719C10.7158 13.1779 11.5674 14.7219 12.9221 16.0781C14.2783 17.4328 15.8222 18.2843 17.0282 18.7935C17.4052 18.9527 17.9774 18.819 18.3018 18.1702L18.7779 17.2195C18.8719 17.0316 19.0042 16.8656 19.1664 16.7321C19.3285 16.5985 19.5169 16.5005 19.7193 16.4443C19.9217 16.3881 20.1336 16.375 20.3414 16.4059C20.5492 16.4367 20.7482 16.5107 20.9256 16.6233L27.6089 20.8751C27.9884 21.1166 28.3089 21.4403 28.5466 21.8223C28.7843 22.2043 28.9331 22.6348 28.9821 23.082C29.0311 23.5292 28.9791 23.9817 28.8298 24.4061C28.6805 24.8305 28.4377 25.2159 28.1195 25.534L27.6765 25.9755C25.1879 28.4656 21.4182 29.939 17.8122 28.323Z" fill="#EAB462"/>
</svg>
